<svg width="232" height="60" viewBox="0 0 232 60" fill="none" xmlns="http://www.w3.org/2000/svg">
<g clip-path="url(#clip0_2150_1073)">
<path d="M217.837 0.000195H14.1706C13.6257 0.000195 13.0872 0.000195 12.5436 0.003195C12.0886 0.006195 11.6372 0.01491 11.1779 0.022245C10.1799 0.0340977 9.18427 0.122709 8.19963 0.28731C7.21638 0.455494 6.26394 0.772569 5.3745 1.22781C4.48616 1.6869 3.67445 2.28345 2.96883 2.9958C2.25951 3.70615 1.66823 4.52722 1.21774 5.42743C0.765999 6.32586 0.452763 7.2886 0.288847 8.28242C0.123373 9.27497 0.0343293 10.279 0.0225163 11.2854C0.00872412 11.7453 0.00726762 12.2067 0 12.6667V47.3381C0.00726762 47.8038 0.00872412 48.255 0.0225014 48.7209C0.0343181 49.7273 0.123361 50.7313 0.288832 51.7238C0.452296 52.7182 0.76555 53.6815 1.21772 54.5802C1.66801 55.4776 2.25938 56.2953 2.96883 57.0017C3.67178 57.7172 4.48401 58.3142 5.3745 58.7697C6.26393 59.2262 7.21628 59.5452 8.19963 59.7159C9.18443 59.8792 10.18 59.9679 11.1779 59.9811C11.6372 59.9913 12.0886 59.9972 12.5436 59.9972C13.0872 60.0002 13.6257 60.0002 14.1706 60.0002H217.837C218.371 60.0002 218.914 60.0002 219.448 59.9972C219.901 59.9972 220.366 59.9913 220.819 59.9811C221.815 59.9686 222.808 59.8799 223.791 59.7159C224.778 59.544 225.733 59.2251 226.627 58.7697C227.517 58.3139 228.328 57.717 229.031 57.0017C229.738 56.2925 230.331 55.4754 230.787 54.5802C231.235 53.6808 231.546 52.7176 231.707 51.7238C231.872 50.7311 231.965 49.7274 231.983 48.7209C231.988 48.255 231.988 47.8038 231.988 47.3381C232 46.7931 232 46.2512 232 45.6974V14.3044C232 13.7551 232 13.2102 231.988 12.6667C231.988 12.2067 231.988 11.7453 231.983 11.2854C231.965 10.2788 231.872 9.27505 231.707 8.28236C231.545 7.28912 231.235 6.32645 230.787 5.42737C229.869 3.62299 228.414 2.15423 226.627 1.22767C225.733 0.773546 224.777 0.456556 223.791 0.287175C222.808 0.121849 221.815 0.0332066 220.819 0.022035C220.366 0.014715 219.901 0.005925 219.448 0.003C218.914 0 218.371 0 217.837 0V0.000195Z" fill="black" fill-opacity="0.14"/>
<path d="M12.5503 58.6875C12.0975 58.6875 11.6555 58.6816 11.2063 58.6714C10.2756 58.6592 9.34708 58.5774 8.42835 58.4268C7.57167 58.2779 6.74179 58.0009 5.96606 57.6049C5.19745 57.2123 4.49642 56.6974 3.88981 56.08C3.27443 55.47 2.76209 54.7624 2.37311 53.9853C1.97984 53.2032 1.70767 52.3648 1.56609 51.4995C1.41319 50.5697 1.33047 49.6295 1.31863 48.687C1.30921 48.3707 1.29688 47.3174 1.29688 47.3174V12.6665C1.29688 12.6665 1.31001 11.6294 1.31871 11.3247C1.33004 10.3837 1.41228 9.44498 1.56472 8.51659C1.70657 7.64888 1.97894 6.80812 2.37242 6.02344C2.75998 5.24692 3.26947 4.53879 3.88115 3.92652C4.49214 3.30843 5.19542 2.79091 5.96534 2.39281C6.73928 1.99814 7.56759 1.7231 8.42253 1.57691C9.34429 1.42475 10.276 1.34249 11.21 1.33082L12.551 1.3125H219.44L220.798 1.33155C221.723 1.34265 222.646 1.42417 223.56 1.57543C224.423 1.72346 225.26 2.00042 226.043 2.39721C227.585 3.19948 228.84 4.46874 229.632 6.02711C230.019 6.80637 230.287 7.64026 230.428 8.50048C230.582 9.43649 230.668 10.3826 230.686 11.3313C230.69 11.7561 230.69 12.2124 230.69 12.6665C230.702 13.229 230.702 13.7644 230.702 14.3042V45.6972C230.702 46.2421 230.702 46.7739 230.69 47.31C230.69 47.7978 230.69 48.2446 230.684 48.7046C230.667 49.6363 230.582 50.5655 230.43 51.4848C230.292 52.3564 230.021 53.2013 229.628 53.9898C229.236 54.7584 228.727 55.4599 228.118 56.0683C227.511 56.689 226.809 57.2069 226.039 57.6021C225.258 58.0011 224.422 58.2791 223.56 58.4268C222.641 58.5782 221.712 58.66 220.782 58.6714C220.346 58.6816 219.89 58.6875 219.448 58.6875L217.837 58.6905L12.5503 58.6875Z" fill="white"/>
<path d="M68.5875 45.7419V32.0317H68.4975L62.9344 45.5998H60.811L55.2333 32.0317H55.1447V45.7419H52.5352V27.1143H55.8487L61.8211 41.8176H61.9227L67.8836 27.1143H71.2087V45.7419H68.5875Z" fill="black"/>
<path d="M73.4141 41.8826C73.4141 39.5081 75.2167 38.074 78.4155 37.8806L82.0992 37.6734V36.6406C82.0992 35.1304 81.1137 34.2778 79.4373 34.2778C78.8165 34.1945 78.1868 34.3427 77.6665 34.6947C77.1462 35.0466 76.7711 35.5781 76.6115 36.1894H74.028C74.1049 33.7358 76.3691 31.9941 79.5143 31.9941C82.7248 31.9941 84.8481 33.7622 84.8481 36.4341V45.7425H82.2008V43.5086H82.1369C81.7129 44.266 81.0951 44.8946 80.348 45.3286C79.6009 45.7625 78.7521 45.9859 77.8902 45.9754C77.3241 46.0313 76.7527 45.9671 76.2127 45.7869C75.6726 45.6067 75.1759 45.3145 74.7544 44.9291C74.3329 44.5437 73.9959 44.0736 73.765 43.5489C73.5342 43.0242 73.4147 42.4567 73.4141 41.8826ZM82.0992 40.6566V39.6106L78.7857 39.8172C77.1354 39.9212 76.2022 40.6434 76.2022 41.805C76.2022 42.993 77.1746 43.7679 78.6579 43.7679C79.0875 43.7973 79.5186 43.7396 79.9258 43.5982C80.3329 43.4568 80.7079 43.2346 81.0287 42.9446C81.3494 42.6547 81.6093 42.3028 81.7932 41.9098C81.977 41.5169 82.0811 41.0907 82.0992 40.6565L82.0992 40.6566Z" fill="black"/>
<path d="M96.445 36.8331C96.3242 36.0902 95.9311 35.4204 95.3435 34.9566C94.756 34.4928 94.0172 34.269 93.2737 34.3296C91.1503 34.3296 89.7439 36.1241 89.7439 38.952C89.7439 41.8435 91.1634 43.5853 93.2984 43.5853C94.0319 43.6594 94.7659 43.4484 95.3506 42.9951C95.9353 42.5419 96.3267 41.8807 96.445 41.1463H99.1053C98.9398 42.5506 98.2377 43.8342 97.1485 44.724C96.0593 45.6137 94.6691 46.0392 93.2737 45.9099C89.4363 45.9099 86.9297 43.2629 86.9297 38.9519C86.9297 34.7295 89.4362 31.9932 93.2476 31.9932C94.6532 31.8729 96.0498 32.3116 97.1395 33.2157C98.2292 34.1198 98.9258 35.4179 99.0807 36.833L96.445 36.8331Z" fill="black"/>
<path d="M117.054 40.7073H110.019L108.329 45.7419H105.35L112.013 27.1143H115.109L121.772 45.7419H118.742L117.054 40.7073ZM110.747 38.384H116.324L113.575 30.2124H113.498L110.747 38.384Z" fill="black"/>
<path d="M136.163 38.952C136.163 43.1722 133.925 45.8836 130.548 45.8836C129.692 45.9288 128.841 45.7299 128.093 45.3097C127.344 44.8895 126.728 44.2649 126.314 43.5076H126.25V50.2342H123.488V32.1602H126.162V34.419H126.213C126.645 33.6653 127.272 33.044 128.026 32.6213C128.781 32.1985 129.635 31.9901 130.497 32.0181C133.912 32.0181 136.163 34.7427 136.163 38.952ZM133.324 38.952C133.324 36.2017 131.916 34.3941 129.768 34.3941C127.658 34.3941 126.239 36.2398 126.239 38.952C126.239 41.6883 127.658 43.5208 129.768 43.5208C131.916 43.5208 133.324 41.7264 133.324 38.952Z" fill="black"/>
<path d="M150.972 38.952C150.972 43.1722 148.734 45.8836 145.356 45.8836C144.501 45.9288 143.65 45.7299 142.901 45.3097C142.153 44.8895 141.536 44.2649 141.123 43.5076H141.059V50.2342H138.297V32.1602H140.97V34.419H141.021C141.454 33.6653 142.08 33.044 142.835 32.6213C143.589 32.1985 144.443 31.9901 145.306 32.0181C148.721 32.0181 150.972 34.7427 150.972 38.952ZM148.133 38.952C148.133 36.2017 146.725 34.3941 144.577 34.3941C142.467 34.3941 141.047 36.2398 141.047 38.952C141.047 41.6883 142.467 43.5208 144.577 43.5208C146.725 43.5208 148.133 41.7264 148.133 38.952H148.133Z" fill="black"/>
<path d="M160.761 40.5521C160.966 42.3992 162.744 43.6121 165.173 43.6121C167.501 43.6121 169.176 42.3992 169.176 40.7336C169.176 39.2878 168.166 38.4221 165.774 37.8289L163.382 37.2466C159.993 36.4204 158.42 34.8208 158.42 32.2251C158.42 29.0112 161.195 26.8037 165.135 26.8037C169.035 26.8037 171.709 29.0112 171.799 32.2251H169.011C168.844 30.3662 167.321 29.2442 165.096 29.2442C162.871 29.2442 161.349 30.3794 161.349 32.0318C161.349 33.3486 162.321 34.1235 164.7 34.7168L166.733 35.2207C170.52 36.1245 172.093 37.6597 172.093 40.385C172.093 43.8698 169.343 46.0524 164.968 46.0524C160.876 46.0524 158.112 43.9211 157.934 40.5519L160.761 40.5521Z" fill="black"/>
<path d="M178.054 28.9473V32.1611H180.613V34.3687H178.054V41.8562C178.054 43.0193 178.566 43.5613 179.691 43.5613C179.995 43.5559 180.298 43.5344 180.6 43.4968V45.6911C180.094 45.7865 179.58 45.8297 179.065 45.82C176.341 45.82 175.279 44.7873 175.279 42.1535V34.3686H173.322V32.1611H175.279V28.9473H178.054Z" fill="black"/>
<path d="M182.094 38.9529C182.094 34.6792 184.587 31.9941 188.476 31.9941C192.377 31.9941 194.859 34.6791 194.859 38.9529C194.859 43.2376 192.39 45.9109 188.476 45.9109C184.563 45.9108 182.094 43.2376 182.094 38.9529ZM192.044 38.9529C192.044 36.021 190.714 34.291 188.475 34.291C186.237 34.291 184.907 36.0342 184.907 38.9529C184.907 41.8957 186.237 43.6126 188.475 43.6126C190.714 43.6126 192.044 41.8957 192.044 38.9529H192.044Z" fill="black"/>
<path d="M197.135 32.1611H199.769V34.4726H199.833C200.011 33.7506 200.43 33.1126 201.02 32.6658C201.609 32.219 202.333 31.9906 203.07 32.019C203.388 32.0178 203.705 32.0527 204.016 32.123V34.7304C203.614 34.6065 203.195 34.5496 202.775 34.5619C202.374 34.5455 201.974 34.6169 201.602 34.7712C201.231 34.9256 200.897 35.1592 200.624 35.456C200.35 35.7528 200.144 36.1059 200.018 36.4909C199.893 36.8759 199.851 37.2837 199.897 37.6864V45.7424H197.135V32.1611Z" fill="black"/>
<path d="M216.751 41.7537C216.38 44.219 214.001 45.9109 210.957 45.9109C207.043 45.9109 204.613 43.2639 204.613 39.0173C204.613 34.7568 207.056 31.9941 210.841 31.9941C214.564 31.9941 216.905 34.5752 216.905 38.6936V39.6487H207.401V39.8171C207.358 40.3169 207.42 40.8204 207.583 41.2942C207.747 41.768 208.009 42.2011 208.351 42.565C208.694 42.9288 209.109 43.2149 209.569 43.4044C210.029 43.5938 210.524 43.6823 211.021 43.6638C211.674 43.7255 212.329 43.573 212.889 43.2288C213.449 42.8846 213.883 42.3673 214.129 41.7537L216.751 41.7537ZM207.414 37.6997H214.142C214.166 37.2503 214.099 36.8006 213.943 36.3788C213.788 35.957 213.547 35.5722 213.238 35.2485C212.928 34.9249 212.555 34.6694 212.142 34.498C211.73 34.3267 211.287 34.2433 210.841 34.2529C210.391 34.2502 209.946 34.3374 209.529 34.5096C209.113 34.6817 208.735 34.9353 208.416 35.2557C208.098 35.5762 207.845 35.9571 207.673 36.3766C207.501 36.7961 207.413 37.2458 207.414 37.6997H207.414Z" fill="black"/>
<path d="M37.1507 29.834C37.1673 28.5321 37.51 27.2556 38.1468 26.1232C38.7836 24.9908 39.6938 24.0394 40.7928 23.3575C40.0947 22.3511 39.1736 21.523 38.1028 20.9387C37.0321 20.3545 35.8411 20.0303 34.6244 19.9918C32.0291 19.7169 29.5131 21.5592 28.1906 21.5592C26.8425 21.5592 24.8063 20.0191 22.6136 20.0647C21.1953 20.1109 19.8131 20.5272 18.6016 21.2729C17.3901 22.0186 16.3906 23.0683 15.7006 24.3197C12.7116 29.5427 14.9411 37.2188 17.8044 41.4407C19.2369 43.5081 20.9111 45.8173 23.1018 45.7354C25.2455 45.6457 26.0462 44.3558 28.6338 44.3558C31.1975 44.3558 31.9486 45.7354 34.1838 45.6834C36.4841 45.6457 37.9334 43.6069 39.3157 41.5199C40.345 40.0469 41.137 38.4188 41.6625 36.6961C40.326 36.1256 39.1856 35.1707 38.3832 33.9504C37.5809 32.7302 37.1523 31.2985 37.1507 29.834Z" fill="black"/>
<path d="M32.9297 17.2153C34.1839 15.6957 34.8019 13.7425 34.6522 11.7705C32.736 11.9736 30.966 12.8979 29.6949 14.3592C29.0733 15.0731 28.5973 15.9036 28.294 16.8033C27.9907 17.703 27.8661 18.6542 27.9272 19.6025C28.8857 19.6124 29.8338 19.4028 30.7004 18.9893C31.5669 18.5758 32.3291 17.9693 32.9297 17.2153Z" fill="black"/>
<path d="M56.2188 13.0961C56.7979 13.0542 57.3789 13.1424 57.9201 13.3546C58.4612 13.5667 58.949 13.8975 59.3482 14.3229C59.7474 14.7483 60.048 15.2579 60.2284 15.8148C60.4089 16.3717 60.4646 16.9621 60.3916 17.5434C60.3916 20.4027 58.8604 22.0464 56.2188 22.0464H53.0156V13.0961H56.2188ZM54.393 20.7806H56.065C56.4788 20.8056 56.8928 20.7371 57.2771 20.5802C57.6613 20.4232 58.0061 20.1818 58.2862 19.8735C58.5664 19.5651 58.7748 19.1976 58.8965 18.7977C59.0182 18.3978 59.0499 17.9755 58.9895 17.5616C59.0456 17.1493 59.0106 16.7297 58.887 16.3327C58.7635 15.9357 58.5545 15.5712 58.275 15.2653C57.9955 14.9594 57.6524 14.7197 57.2703 14.5633C56.8882 14.407 56.4766 14.3379 56.065 14.3609H54.393V20.7806Z" fill="black"/>
<path d="M61.9466 18.6667C61.9045 18.2228 61.9548 17.7749 62.0943 17.3518C62.2337 16.9287 62.4593 16.5397 62.7564 16.2098C63.0536 15.8798 63.4158 15.6161 63.8198 15.4357C64.2239 15.2553 64.6608 15.1621 65.1026 15.1621C65.5444 15.1621 65.9814 15.2553 66.3854 15.4357C66.7894 15.6161 67.1516 15.8798 67.4488 16.2098C67.7459 16.5397 67.9715 16.9287 68.111 17.3518C68.2504 17.7749 68.3007 18.2228 68.2587 18.6667C68.3015 19.111 68.2518 19.5595 68.1127 19.9833C67.9736 20.4071 67.7482 20.7968 67.451 21.1274C67.1537 21.458 66.7913 21.7222 66.3868 21.903C65.9824 22.0838 65.5449 22.1772 65.1026 22.1772C64.6603 22.1772 64.2228 22.0838 63.8184 21.903C63.414 21.7222 63.0515 21.458 62.7543 21.1274C62.457 20.7968 62.2316 20.4071 62.0925 19.9833C61.9534 19.5595 61.9037 19.111 61.9466 18.6667ZM66.9001 18.6667C66.9001 17.2026 66.2485 16.3464 65.1048 16.3464C63.9567 16.3464 63.3109 17.2026 63.3109 18.6667C63.3109 20.1425 63.9568 20.9921 65.1048 20.9921C66.2485 20.9921 66.9002 20.1366 66.9002 18.6667H66.9001Z" fill="black"/>
<path d="M76.6498 22.0464H75.2797L73.8965 17.0718H73.792L72.4147 22.0464H71.0576L69.2129 15.292H70.5525L71.7514 20.446H71.8501L73.226 15.292H74.4931L75.869 20.446H75.9735L77.1665 15.292H78.4873L76.6498 22.0464Z" fill="black"/>
<path d="M80.0391 15.2923H81.3105V16.3653H81.4092C81.5766 15.9799 81.859 15.6569 82.217 15.4411C82.575 15.2254 82.9907 15.1278 83.4063 15.1619C83.7319 15.1372 84.0589 15.1868 84.363 15.3069C84.667 15.4271 84.9404 15.6147 85.1629 15.856C85.3854 16.0972 85.5512 16.3859 85.6481 16.7007C85.745 17.0154 85.7705 17.3481 85.7227 17.6741V22.0466H84.4019V18.0089C84.4019 16.9234 83.9346 16.3836 82.9578 16.3836C82.7367 16.3732 82.516 16.4112 82.3108 16.4949C82.1057 16.5787 81.9208 16.7062 81.7691 16.8688C81.6173 17.0314 81.5021 17.2252 81.4315 17.4368C81.3609 17.6485 81.3364 17.8732 81.3598 18.0953V22.0467H80.0391L80.0391 15.2923Z" fill="black"/>
<path d="M87.8281 12.6553H89.1489V22.0464H87.8281V12.6553Z" fill="black"/>
<path d="M90.9837 18.6667C90.9416 18.2228 90.9919 17.7749 91.1314 17.3518C91.2709 16.9287 91.4964 16.5397 91.7936 16.2098C92.0907 15.8798 92.4529 15.6161 92.857 15.4357C93.261 15.2553 93.6979 15.1621 94.1397 15.1621C94.5815 15.1621 95.0185 15.2553 95.4225 15.4357C95.8265 15.6161 96.1887 15.8798 96.4859 16.2098C96.7831 16.5397 97.0086 16.9287 97.1481 17.3518C97.2875 17.7749 97.3378 18.2228 97.2958 18.6667C97.3386 19.111 97.2889 19.5595 97.1498 19.9833C97.0107 20.4071 96.7853 20.7968 96.4881 21.1274C96.1909 21.458 95.8284 21.7222 95.4239 21.903C95.0195 22.0838 94.5821 22.1772 94.1397 22.1772C93.6974 22.1772 93.2599 22.0838 92.8555 21.903C92.4511 21.7222 92.0886 21.458 91.7914 21.1274C91.4941 20.7968 91.2687 20.4071 91.1296 19.9833C90.9905 19.5595 90.9408 19.111 90.9837 18.6667ZM95.9373 18.6667C95.9373 17.2026 95.2856 16.3464 94.1419 16.3464C92.9939 16.3464 92.348 17.2026 92.348 18.6667C92.348 20.1425 92.9939 20.9921 94.1419 20.9921C95.2856 20.9921 95.9373 20.1366 95.9373 18.6667H95.9373Z" fill="black"/>
<path d="M98.6855 20.1367C98.6855 18.9209 99.5825 18.22 101.175 18.1203L102.987 18.0149V17.4319C102.987 16.7185 102.52 16.3157 101.617 16.3157C100.88 16.3157 100.369 16.5889 100.223 17.0664H98.9439C99.0789 15.9062 100.16 15.1621 101.678 15.1621C103.356 15.1621 104.302 16.0051 104.302 17.4319V22.0469H103.031V21.0977H102.927C102.714 21.4381 102.417 21.7157 102.063 21.902C101.71 22.0883 101.314 22.1767 100.916 22.1582C100.635 22.1876 100.351 22.1574 100.083 22.0693C99.8141 21.9813 99.5667 21.8374 99.3566 21.647C99.1464 21.4565 98.9781 21.2237 98.8625 20.9636C98.7469 20.7035 98.6867 20.4218 98.6855 20.1367ZM102.987 19.5596V18.9949L101.353 19.1003C100.432 19.1626 100.014 19.479 100.014 20.0744C100.014 20.6823 100.536 21.0361 101.255 21.0361C101.465 21.0576 101.678 21.0362 101.88 20.973C102.082 20.9099 102.269 20.8064 102.431 20.6686C102.593 20.5308 102.725 20.3617 102.821 20.1711C102.917 19.9806 102.973 19.7726 102.987 19.5596Z" fill="black"/>
<path d="M106.039 18.6663C106.039 16.532 107.126 15.18 108.817 15.18C109.235 15.1605 109.65 15.2616 110.014 15.4714C110.377 15.6813 110.674 15.9912 110.869 16.365H110.968V12.6553H112.289V22.0464H111.023V20.9792H110.919C110.708 21.3505 110.401 21.6565 110.031 21.8643C109.66 22.072 109.241 22.1735 108.817 22.1577C107.115 22.1578 106.039 20.8057 106.039 18.6663ZM107.403 18.6663C107.403 20.0989 108.073 20.961 109.192 20.961C110.305 20.961 110.993 20.0865 110.993 18.6721C110.993 17.2644 110.297 16.3775 109.192 16.3775C108.08 16.3775 107.403 17.2454 107.403 18.6663H107.403Z" fill="black"/>
<path d="M117.753 18.6658C117.711 18.2219 117.761 17.774 117.901 17.3509C118.04 16.9278 118.266 16.5388 118.563 16.2088C118.86 15.8788 119.223 15.6152 119.627 15.4347C120.031 15.2543 120.468 15.1611 120.91 15.1611C121.351 15.1611 121.788 15.2543 122.192 15.4347C122.596 15.6152 122.959 15.8788 123.256 16.2088C123.553 16.5388 123.779 16.9278 123.918 17.3509C124.058 17.774 124.108 18.2219 124.066 18.6658C124.109 19.1102 124.059 19.5587 123.92 19.9824C123.781 20.4062 123.555 20.7959 123.258 21.1266C122.961 21.4572 122.598 21.7214 122.194 21.9022C121.789 22.0829 121.352 22.1763 120.91 22.1763C120.467 22.1763 120.03 22.0829 119.625 21.9022C119.221 21.7214 118.858 21.4572 118.561 21.1266C118.264 20.7959 118.038 20.4062 117.899 19.9824C117.76 19.5587 117.71 19.1102 117.753 18.6658ZM122.707 18.6658C122.707 17.2017 122.055 16.3455 120.911 16.3455C119.763 16.3455 119.118 17.2017 119.118 18.6658C119.118 20.1417 119.763 20.9913 120.911 20.9913C122.055 20.9913 122.707 20.1358 122.707 18.6658H122.707Z" fill="black"/>
<path d="M125.838 15.2923H127.109V16.3653H127.208C127.375 15.9799 127.658 15.6569 128.016 15.4411C128.374 15.2254 128.79 15.1278 129.205 15.1619C129.531 15.1372 129.858 15.1868 130.162 15.3069C130.466 15.4271 130.739 15.6147 130.962 15.856C131.184 16.0972 131.35 16.3859 131.447 16.7007C131.544 17.0154 131.569 17.3481 131.522 17.6741V22.0466H130.201V18.0089C130.201 16.9234 129.733 16.3836 128.757 16.3836C128.536 16.3732 128.315 16.4112 128.11 16.4949C127.904 16.5787 127.72 16.7062 127.568 16.8688C127.416 17.0314 127.301 17.2252 127.23 17.4368C127.16 17.6485 127.135 17.8732 127.159 18.0953V22.0467H125.838V15.2923Z" fill="black"/>
<path d="M138.984 13.6104V15.3228H140.434V16.4456H138.984V19.9187C138.984 20.6262 139.273 20.936 139.931 20.936C140.099 20.9355 140.267 20.9252 140.434 20.9053V22.0156C140.197 22.0584 139.957 22.0812 139.716 22.0837C138.247 22.0837 137.662 21.5622 137.662 20.26V16.4455H136.6V15.3227H137.662V13.6104H138.984Z" fill="black"/>
<path d="M142.238 12.6553H143.547V16.3774H143.652C143.827 15.9885 144.118 15.6636 144.483 15.4471C144.848 15.2305 145.27 15.1329 145.693 15.1675C146.016 15.1497 146.34 15.2043 146.641 15.3273C146.942 15.4504 147.212 15.6389 147.432 15.8794C147.652 16.1199 147.817 16.4065 147.914 16.7187C148.012 17.0309 148.041 17.361 147.997 17.6856V22.0464H146.675V18.0144C146.675 16.9355 146.177 16.3891 145.244 16.3891C145.017 16.3704 144.789 16.4019 144.575 16.4814C144.361 16.561 144.168 16.6868 144.007 16.8499C143.847 17.013 143.723 17.2095 143.646 17.4257C143.569 17.6419 143.539 17.8726 143.559 18.1015V22.0464H142.238L142.238 12.6553Z" fill="black"/>
<path d="M155.7 20.2223C155.52 20.8396 155.131 21.3736 154.601 21.7308C154.071 22.088 153.433 22.2457 152.8 22.1764C152.359 22.1881 151.921 22.1029 151.516 21.9266C151.111 21.7503 150.748 21.4872 150.454 21.1555C150.16 20.8238 149.941 20.4314 149.812 20.0057C149.683 19.58 149.648 19.131 149.708 18.6901C149.65 18.2477 149.686 17.7978 149.814 17.3708C149.943 16.9438 150.161 16.5497 150.453 16.2151C150.746 15.8804 151.106 15.6132 151.51 15.4314C151.914 15.2496 152.352 15.1574 152.794 15.1612C154.656 15.1612 155.779 16.4452 155.779 18.5662V19.0314H151.054V19.1061C151.033 19.3539 151.064 19.6034 151.144 19.8386C151.225 20.0737 151.353 20.2893 151.521 20.4714C151.689 20.6536 151.892 20.7984 152.119 20.8965C152.345 20.9946 152.59 21.0438 152.836 21.0411C153.152 21.0794 153.472 21.0219 153.755 20.8761C154.039 20.7303 154.273 20.5027 154.428 20.2222L155.7 20.2223ZM151.054 18.0455H154.434C154.451 17.8188 154.42 17.5911 154.344 17.3771C154.269 17.163 154.149 16.9673 153.994 16.8025C153.839 16.6377 153.651 16.5075 153.443 16.4202C153.235 16.3329 153.012 16.2906 152.787 16.2958C152.558 16.2929 152.331 16.3362 152.12 16.4231C151.908 16.51 151.716 16.6388 151.555 16.8019C151.393 16.9649 151.266 17.159 151.18 17.3726C151.093 17.5862 151.051 17.815 151.054 18.0455H151.054Z" fill="black"/>
</g>
<defs>
<clipPath id="clip0_2150_1073">
<rect width="232" height="60" fill="white"/>
</clipPath>
</defs>
</svg>
