<svg width="178" height="60" viewBox="0 0 178 60" fill="none" xmlns="http://www.w3.org/2000/svg">
<g clip-path="url(#clip0_2150_1038)">
<path d="M163.825 0.000195H14.1828C13.6373 0.000195 13.0984 0.000195 12.5544 0.003195C12.099 0.006195 11.6472 0.01491 11.1875 0.022245C10.1886 0.0340977 9.19215 0.122709 8.20667 0.28731C7.22258 0.455494 6.26931 0.772569 5.37912 1.22781C4.49001 1.6869 3.67761 2.28345 2.97138 2.9958C2.26145 3.70615 1.66966 4.52722 1.21878 5.42743C0.766657 6.32586 0.453152 7.2886 0.289095 8.28242C0.123479 9.27497 0.0343588 10.279 0.0225356 11.2854C0.00873161 11.7453 0.00727386 12.2067 0 12.6667V47.3381C0.00727386 47.8038 0.00873161 48.255 0.0225356 48.7209C0.0343624 49.7273 0.123482 50.7313 0.289095 51.7238C0.452699 52.7182 0.766222 53.6815 1.21878 54.5802C1.66946 55.4775 2.26132 56.2953 2.97138 57.0017C3.67493 57.7172 4.48786 58.3142 5.37912 58.7697C6.26931 59.2262 7.22247 59.5452 8.20667 59.7159C9.19232 59.8792 10.1887 59.9679 11.1875 59.9811C11.6472 59.9913 12.099 59.9972 12.5544 59.9972C13.0984 60.0002 13.6374 60.0002 14.1828 60.0002H163.825C164.36 60.0002 164.903 60.0002 165.438 59.9972C165.891 59.9972 166.356 59.9913 166.809 59.9811C167.806 59.9686 168.8 59.8799 169.784 59.7159C170.771 59.544 171.728 59.2251 172.622 58.7697C173.513 58.3139 174.325 57.717 175.028 57.0017C175.736 56.2925 176.329 55.4754 176.786 54.5802C177.235 53.6808 177.545 52.7176 177.707 51.7238C177.872 50.7311 177.965 49.7274 177.983 48.7209C177.988 48.255 177.988 47.8038 177.988 47.3381C178 46.7931 178 46.2512 178 45.6974V14.3044C178 13.7551 178 13.2102 177.988 12.6667C177.988 12.2067 177.988 11.7453 177.983 11.2854C177.965 10.2788 177.872 9.27505 177.707 8.28236C177.545 7.28912 177.234 6.32645 176.786 5.42737C175.867 3.62299 174.411 2.15423 172.622 1.22767C171.728 0.773546 170.771 0.456556 169.784 0.287175C168.801 0.121849 167.806 0.0332066 166.809 0.022035C166.356 0.014715 165.891 0.005925 165.438 0.003C164.903 0 164.36 0 163.825 0V0.000195Z" fill="black" fill-opacity="0.14"/>
<path d="M12.5619 58.6875C12.1087 58.6875 11.6664 58.6816 11.2168 58.6714C10.2853 58.6592 9.35594 58.5774 8.43642 58.4268C7.57901 58.2779 6.74841 58.0009 5.97202 57.6049C5.20275 57.2123 4.50112 56.6974 3.89399 56.08C3.27808 55.47 2.7653 54.7624 2.37598 53.9853C1.98238 53.2032 1.70998 52.3648 1.56827 51.4995C1.41525 50.5697 1.33245 49.6295 1.32061 48.687C1.31117 48.3707 1.29883 47.3174 1.29883 47.3174V12.6665C1.29883 12.6665 1.31198 11.6294 1.32068 11.3247C1.33202 10.3837 1.41434 9.44498 1.56691 8.51659C1.70887 7.64888 1.98148 6.80812 2.3753 6.02344C2.76319 5.24692 3.27312 4.53879 3.88532 3.92652C4.49683 3.30843 5.20072 2.79091 5.9713 2.39281C6.7459 1.99814 7.57493 1.7231 8.4306 1.57691C9.35315 1.42475 10.2857 1.34249 11.2204 1.33082L12.5626 1.3125H165.431L166.789 1.33155C167.715 1.34265 168.639 1.42417 169.553 1.57543C170.418 1.72346 171.255 2.00042 172.039 2.39721C173.582 3.19948 174.839 4.46874 175.631 6.02711C176.018 6.80637 176.287 7.64026 176.427 8.50048C176.581 9.43649 176.668 10.3826 176.686 11.3313C176.69 11.7561 176.69 12.2124 176.69 12.6665C176.702 13.229 176.702 13.7644 176.702 14.3042V45.6972C176.702 46.2421 176.702 46.7739 176.69 47.31C176.69 47.7978 176.69 48.2446 176.684 48.7046C176.667 49.6363 176.582 50.5655 176.43 51.4848C176.291 52.3564 176.02 53.2013 175.627 53.9898C175.235 54.7584 174.725 55.4599 174.116 56.0683C173.508 56.689 172.805 57.2069 172.034 57.6021C171.253 58.0011 170.417 58.2791 169.553 58.4268C168.634 58.5782 167.704 58.66 166.773 58.6714C166.337 58.6816 165.881 58.6875 165.438 58.6875L163.825 58.6905L12.5619 58.6875Z" fill="white"/>
<path d="M37.1821 29.834C37.1987 28.5321 37.5416 27.2556 38.179 26.1232C38.8163 24.9908 39.7274 24.0394 40.8273 23.3575C40.1285 22.3511 39.2067 21.523 38.135 20.9387C37.0633 20.3545 35.8713 20.0303 34.6536 19.9918C32.0561 19.7169 29.5379 21.5592 28.2142 21.5592C26.865 21.5592 24.827 20.0191 22.6324 20.0647C21.2129 20.1109 19.8295 20.5272 18.617 21.2729C17.4045 22.0186 16.4042 23.0683 15.7135 24.3197C12.722 29.5427 14.9534 37.2188 17.8191 41.4407C19.2529 43.5081 20.9285 45.8173 23.1211 45.7354C25.2667 45.6457 26.068 44.3558 28.6579 44.3558C31.2237 44.3558 31.9755 45.7354 34.2126 45.6834C36.5149 45.6457 37.9654 43.6069 39.3489 41.5199C40.3791 40.0469 41.1718 38.4188 41.6977 36.6961C40.3601 36.1256 39.2187 35.1707 38.4157 33.9504C37.6127 32.7302 37.1836 31.2985 37.1821 29.834Z" fill="black"/>
<path d="M32.9574 17.2153C34.2128 15.6957 34.8312 13.7425 34.6814 11.7705C32.7636 11.9736 30.9921 12.8979 29.7198 14.3592C29.0978 15.0731 28.6214 15.9036 28.3178 16.8033C28.0142 17.703 27.8895 18.6542 27.9507 19.6025C28.9099 19.6124 29.8589 19.4028 30.7262 18.9893C31.5934 18.5758 32.3563 17.9693 32.9574 17.2153Z" fill="black"/>
<path d="M62.923 40.7095H55.8821L54.1912 45.7442H51.209L57.878 27.1172H60.9765L67.6455 45.7442H64.6124L62.923 40.7095ZM56.6113 38.3863H62.1924L59.4411 30.2154H59.3641L56.6113 38.3863Z" fill="black"/>
<path d="M82.0492 38.9552C82.0492 43.1754 79.8092 45.8868 76.4289 45.8868C75.5726 45.932 74.7211 45.7331 73.9717 45.3128C73.2223 44.8926 72.6054 44.2681 72.1916 43.5108H72.1276V50.2374H69.3633V32.1641H72.039V34.4229H72.0899C72.5227 33.6692 73.15 33.0479 73.9051 32.6252C74.6602 32.2024 75.5148 31.994 76.378 32.022C79.7961 32.022 82.0492 34.7466 82.0492 38.9552ZM79.2078 38.9552C79.2078 36.2057 77.7988 34.398 75.6489 34.398C73.5367 34.398 72.1161 36.2437 72.1161 38.9552C72.1161 41.6915 73.5367 43.524 75.6489 43.524C77.7988 43.524 79.2078 41.7296 79.2078 38.9552H79.2078Z" fill="black"/>
<path d="M96.8722 38.9552C96.8722 43.1754 94.6315 45.8868 91.2512 45.8868C90.3949 45.932 89.5433 45.7331 88.7939 45.3128C88.0445 44.8926 87.4276 44.2681 87.0139 43.5108H86.9499V50.2374H84.1855V32.1641H86.8613V34.4229H86.9121C87.3449 33.6692 87.9723 33.0479 88.7274 32.6252C89.4825 32.2024 90.3371 31.994 91.2003 32.022C94.6184 32.022 96.8722 34.7466 96.8722 38.9552ZM94.0301 38.9552C94.0301 36.2057 92.621 34.398 90.4711 34.398C88.359 34.398 86.9383 36.2437 86.9383 38.9552C86.9383 41.6915 88.359 43.524 90.4711 43.524C92.621 43.524 94.0301 41.7296 94.0301 38.9552Z" fill="black"/>
<path d="M106.668 40.5543C106.873 42.4015 108.652 43.6143 111.084 43.6143C113.414 43.6143 115.09 42.4014 115.09 40.7359C115.09 39.29 114.079 38.4243 111.685 37.8311L109.291 37.2495C105.899 36.4233 104.325 34.8237 104.325 32.228C104.325 29.0142 107.102 26.8066 111.044 26.8066C114.949 26.8066 117.625 29.0142 117.715 32.228H114.924C114.757 30.3691 113.234 29.2471 111.007 29.2471C108.78 29.2471 107.256 30.3823 107.256 32.0347C107.256 33.3516 108.229 34.1265 110.61 34.7197L112.645 35.2236C116.435 36.1274 118.008 37.6626 118.008 40.3872C118.008 43.872 115.257 46.0546 110.879 46.0546C106.782 46.0546 104.017 43.9233 103.838 40.5541L106.668 40.5543Z" fill="black"/>
<path d="M123.976 28.9502V32.1641H126.537V34.3716H123.976V41.8584C123.976 43.0215 124.489 43.5635 125.614 43.5635C125.918 43.5581 126.222 43.5366 126.524 43.499V45.6933C126.018 45.7887 125.503 45.8319 124.988 45.8222C122.262 45.8222 121.198 44.7895 121.198 42.1557V34.3716H119.24V32.1641H121.198V28.9502H123.976Z" fill="black"/>
<path d="M128.02 38.9551C128.02 34.6821 130.515 31.9971 134.407 31.9971C138.311 31.9971 140.795 34.6821 140.795 38.9551C140.795 43.2397 138.325 45.9131 134.407 45.9131C130.49 45.9131 128.02 43.2397 128.02 38.9551ZM137.979 38.9551C137.979 36.0239 136.647 34.2939 134.407 34.2939C132.167 34.2939 130.835 36.0371 130.835 38.9551C130.835 41.8979 132.167 43.6147 134.407 43.6147C136.647 43.6147 137.979 41.8979 137.979 38.9551H137.979Z" fill="black"/>
<path d="M143.074 32.164H145.711V34.4755H145.775C145.953 33.7536 146.373 33.1156 146.962 32.6687C147.552 32.2219 148.277 31.9935 149.014 32.0219C149.333 32.0208 149.65 32.0557 149.961 32.1259V34.7333C149.559 34.6094 149.14 34.5525 148.719 34.5649C148.318 34.5484 147.917 34.6198 147.546 34.7742C147.174 34.9285 146.84 35.1621 146.566 35.4589C146.292 35.7558 146.086 36.1088 145.96 36.4938C145.835 36.8788 145.793 37.2867 145.839 37.6894V45.7446H143.074L143.074 32.164Z" fill="black"/>
<path d="M162.707 41.7559C162.335 44.2212 159.954 45.9131 156.908 45.9131C152.99 45.9131 150.559 43.2661 150.559 39.0195C150.559 34.7598 153.003 31.9971 156.792 31.9971C160.518 31.9971 162.861 34.5781 162.861 38.6958V39.6509H153.349V39.8193C153.305 40.3191 153.367 40.8226 153.531 41.2964C153.695 41.7702 153.957 42.2033 154.3 42.5671C154.642 42.931 155.058 43.2171 155.519 43.4066C155.979 43.596 156.475 43.6845 156.972 43.666C157.625 43.7277 158.281 43.5752 158.841 43.231C159.401 42.8868 159.837 42.3695 160.082 41.7558L162.707 41.7559ZM153.362 37.7026H160.095C160.12 37.2532 160.052 36.8035 159.897 36.3817C159.741 35.9599 159.5 35.5751 159.19 35.2514C158.88 34.9278 158.507 34.6723 158.094 34.501C157.681 34.3296 157.238 34.2462 156.792 34.2559C156.342 34.2532 155.895 34.3404 155.479 34.5125C155.062 34.6846 154.684 34.9382 154.365 35.2586C154.046 35.5791 153.793 35.9601 153.621 36.3795C153.449 36.799 153.361 37.2487 153.362 37.7026V37.7026Z" fill="black"/>
<path d="M56.2665 13.0961C56.8461 13.0542 57.4276 13.1424 57.9692 13.3546C58.5108 13.5667 58.999 13.8975 59.3985 14.3229C59.7981 14.7483 60.099 15.2579 60.2795 15.8148C60.4601 16.3717 60.5159 16.9621 60.4428 17.5434C60.4428 20.4027 58.9103 22.0464 56.2665 22.0464H53.0605V13.0961H56.2665ZM54.4391 20.7806H56.1125C56.5266 20.8056 56.9411 20.7371 57.3257 20.5802C57.7102 20.4232 58.0553 20.1818 58.3357 19.8735C58.616 19.5651 58.8247 19.1976 58.9465 18.7977C59.0682 18.3978 59.1001 17.9755 59.0396 17.5616C59.0957 17.1493 59.0606 16.7297 58.937 16.3327C58.8134 15.9357 58.6042 15.5712 58.3244 15.2653C58.0447 14.9594 57.7013 14.7197 57.3189 14.5633C56.9365 14.407 56.5245 14.3379 56.1125 14.3609H54.4391V20.7806Z" fill="black"/>
<path d="M61.9993 18.6667C61.9572 18.2228 62.0076 17.7749 62.1472 17.3518C62.2867 16.9287 62.5125 16.5397 62.8099 16.2098C63.1073 15.8798 63.4698 15.6161 63.8742 15.4357C64.2786 15.2553 64.7159 15.1621 65.1581 15.1621C65.6003 15.1621 66.0376 15.2553 66.4419 15.4357C66.8463 15.6161 67.2088 15.8798 67.5063 16.2098C67.8037 16.5397 68.0294 16.9287 68.169 17.3518C68.3086 17.7749 68.3589 18.2228 68.3168 18.6667C68.3597 19.111 68.31 19.5595 68.1708 19.9833C68.0315 20.4071 67.8059 20.7968 67.5084 21.1274C67.211 21.458 66.8482 21.7222 66.4434 21.903C66.0386 22.0838 65.6008 22.1772 65.1581 22.1772C64.7154 22.1772 64.2775 22.0838 63.8728 21.903C63.468 21.7222 63.1052 21.458 62.8077 21.1274C62.5102 20.7968 62.2846 20.4071 62.1454 19.9833C62.0062 19.5595 61.9564 19.111 61.9993 18.6667ZM66.9571 18.6667C66.9571 17.2026 66.3049 16.3464 65.1602 16.3464C64.0112 16.3464 63.3648 17.2026 63.3648 18.6667C63.3648 20.1425 64.0113 20.9921 65.1602 20.9921C66.3049 20.9921 66.9572 20.1366 66.9572 18.6667H66.9571Z" fill="black"/>
<path d="M76.7148 22.0464H75.3435L73.9591 17.0718H73.8546L72.476 22.0464H71.1178L69.2715 15.292H70.6123L71.8121 20.446H71.9109L73.288 15.292H74.5562L75.9333 20.446H76.0379L77.2319 15.292H78.5538L76.7148 22.0464Z" fill="black"/>
<path d="M80.1074 15.2923H81.3799V16.3653H81.4787C81.6463 15.9799 81.9289 15.6569 82.2872 15.4411C82.6455 15.2254 83.0616 15.1278 83.4775 15.1619C83.8034 15.1372 84.1307 15.1868 84.435 15.3069C84.7394 15.4271 85.013 15.6147 85.2357 15.856C85.4583 16.0972 85.6243 16.3859 85.7213 16.7007C85.8183 17.0154 85.8438 17.3481 85.7959 17.6741V22.0466H84.474V18.0089C84.474 16.9234 84.0063 16.3836 83.0287 16.3836C82.8074 16.3732 82.5865 16.4112 82.3811 16.4949C82.1758 16.5787 81.9908 16.7062 81.8389 16.8688C81.687 17.0314 81.5717 17.2252 81.501 17.4368C81.4303 17.6485 81.4059 17.8732 81.4293 18.0953V22.0467H80.1074L80.1074 15.2923Z" fill="black"/>
<path d="M87.9023 12.6553H89.2242V22.0464H87.9023V12.6553Z" fill="black"/>
<path d="M91.0618 18.6658C91.0197 18.2219 91.0701 17.774 91.2097 17.3509C91.3493 16.9278 91.5751 16.5388 91.8725 16.2088C92.17 15.8788 92.5325 15.6152 92.9369 15.4347C93.3414 15.2543 93.7787 15.1611 94.2209 15.1611C94.6631 15.1611 95.1004 15.2543 95.5049 15.4347C95.9093 15.6152 96.2718 15.8788 96.5692 16.2088C96.8667 16.5388 97.0925 16.9278 97.2321 17.3509C97.3717 17.774 97.4221 18.2219 97.38 18.6658C97.4229 19.1102 97.3731 19.5587 97.2338 19.9824C97.0945 20.4062 96.8689 20.7959 96.5714 21.1266C96.2739 21.4572 95.9111 21.7214 95.5063 21.9022C95.1015 22.0829 94.6636 22.1763 94.2209 22.1763C93.7782 22.1763 93.3403 22.0829 92.9355 21.9022C92.5307 21.7214 92.1679 21.4572 91.8704 21.1266C91.5729 20.7959 91.3473 20.4062 91.208 19.9824C91.0687 19.5587 91.0189 19.1102 91.0618 18.6658ZM96.0196 18.6658C96.0196 17.2017 95.3674 16.3455 94.2227 16.3455C93.0737 16.3455 92.4273 17.2017 92.4273 18.6658C92.4273 20.1417 93.0737 20.9913 94.2227 20.9913C95.3674 20.9913 96.0196 20.1358 96.0196 18.6658H96.0196Z" fill="black"/>
<path d="M98.7715 20.1367C98.7715 18.9209 99.6692 18.22 101.263 18.1203L103.077 18.0149V17.4319C103.077 16.7185 102.609 16.3157 101.706 16.3157C100.968 16.3157 100.457 16.5889 100.31 17.0664H99.0301C99.1651 15.9062 100.247 15.1621 101.767 15.1621C103.446 15.1621 104.393 16.0051 104.393 17.4319V22.0469H103.121V21.0977H103.016C102.804 21.4381 102.506 21.7157 102.152 21.902C101.799 22.0883 101.403 22.1767 101.004 22.1582C100.723 22.1876 100.439 22.1574 100.17 22.0693C99.901 21.9813 99.6534 21.8374 99.4431 21.647C99.2327 21.4565 99.0643 21.2237 98.9486 20.9636C98.8329 20.7035 98.7726 20.4218 98.7715 20.1367ZM103.077 19.5596V18.9949L101.441 19.1003C100.519 19.1626 100.101 19.479 100.101 20.0744C100.101 20.6823 100.624 21.0361 101.343 21.0361C101.553 21.0576 101.766 21.0362 101.969 20.973C102.171 20.9099 102.358 20.8064 102.52 20.6686C102.682 20.5308 102.815 20.3617 102.91 20.1711C103.006 19.9806 103.063 19.7726 103.077 19.5596Z" fill="black"/>
<path d="M106.131 18.6663C106.131 16.532 107.219 15.18 108.911 15.18C109.33 15.1605 109.745 15.2616 110.109 15.4714C110.473 15.6813 110.77 15.9912 110.965 16.365H111.064V12.6553H112.386V22.0464H111.119V20.9792H111.015C110.804 21.3505 110.497 21.6565 110.126 21.8643C109.755 22.072 109.335 22.1735 108.911 22.1577C107.207 22.1578 106.131 20.8057 106.131 18.6663ZM107.496 18.6663C107.496 20.0989 108.166 20.961 109.286 20.961C110.4 20.961 111.089 20.0865 111.089 18.6721C111.089 17.2644 110.393 16.3775 109.286 16.3775C108.173 16.3775 107.496 17.2454 107.496 18.6663H107.496Z" fill="black"/>
<path d="M117.855 18.6667C117.813 18.2228 117.863 17.7749 118.003 17.3518C118.142 16.9287 118.368 16.5397 118.665 16.2098C118.963 15.8798 119.325 15.6161 119.73 15.4357C120.134 15.2553 120.571 15.1621 121.014 15.1621C121.456 15.1621 121.893 15.2553 122.297 15.4357C122.702 15.6161 123.064 15.8798 123.362 16.2098C123.659 16.5397 123.885 16.9287 124.024 17.3518C124.164 17.7749 124.214 18.2228 124.172 18.6667C124.215 19.111 124.165 19.5595 124.026 19.9833C123.887 20.4071 123.661 20.7968 123.364 21.1274C123.066 21.458 122.704 21.7222 122.299 21.903C121.894 22.0838 121.456 22.1772 121.014 22.1772C120.571 22.1772 120.133 22.0838 119.728 21.903C119.323 21.7222 118.961 21.458 118.663 21.1274C118.366 20.7968 118.14 20.4071 118.001 19.9833C117.862 19.5595 117.812 19.111 117.855 18.6667ZM122.813 18.6667C122.813 17.2026 122.16 16.3464 121.016 16.3464C119.867 16.3464 119.22 17.2026 119.22 18.6667C119.22 20.1425 119.867 20.9921 121.016 20.9921C122.16 20.9921 122.813 20.1366 122.813 18.6667Z" fill="black"/>
<path d="M125.945 15.2923H127.218V16.3653H127.317C127.484 15.9799 127.767 15.6569 128.125 15.4411C128.483 15.2254 128.9 15.1278 129.315 15.1619C129.641 15.1372 129.969 15.1868 130.273 15.3069C130.577 15.4271 130.851 15.6147 131.074 15.856C131.296 16.0972 131.462 16.3859 131.559 16.7007C131.656 17.0154 131.682 17.3481 131.634 17.6741V22.0466H130.312V18.0089C130.312 16.9234 129.844 16.3836 128.867 16.3836C128.645 16.3732 128.424 16.4112 128.219 16.4949C128.014 16.5787 127.829 16.7062 127.677 16.8688C127.525 17.0314 127.41 17.2252 127.339 17.4368C127.268 17.6485 127.244 17.8732 127.267 18.0953V22.0467H125.945V15.2923Z" fill="black"/>
<path d="M139.103 13.6104V15.3228H140.555V16.4456H139.103V19.9187C139.103 20.6262 139.393 20.936 140.051 20.936C140.219 20.9355 140.387 20.9252 140.555 20.9053V22.0156C140.317 22.0584 140.077 22.0812 139.836 22.0837C138.366 22.0837 137.78 21.5622 137.78 20.26V16.4455H136.717V15.3227H137.78V13.6104H139.103Z" fill="black"/>
<path d="M142.361 12.6553H143.672V16.3774H143.776C143.952 15.9885 144.242 15.6636 144.608 15.4471C144.973 15.2305 145.396 15.1329 145.819 15.1675C146.143 15.1497 146.467 15.2043 146.768 15.3273C147.069 15.4504 147.339 15.6389 147.559 15.8794C147.78 16.1199 147.945 16.4065 148.042 16.7187C148.14 17.0309 148.169 17.361 148.125 17.6856V22.0464H146.802V18.0144C146.802 16.9355 146.304 16.3891 145.37 16.3891C145.143 16.3704 144.914 16.4019 144.7 16.4814C144.486 16.561 144.292 16.6868 144.132 16.8499C143.971 17.013 143.848 17.2095 143.77 17.4257C143.693 17.6419 143.663 17.8726 143.683 18.1015V22.0464H142.361L142.361 12.6553Z" fill="black"/>
<path d="M155.832 20.2223C155.652 20.8396 155.263 21.3736 154.732 21.7308C154.202 22.088 153.564 22.2457 152.929 22.1764C152.488 22.1881 152.049 22.1029 151.644 21.9266C151.239 21.7503 150.876 21.4872 150.582 21.1555C150.288 20.8238 150.068 20.4314 149.939 20.0057C149.81 19.58 149.775 19.131 149.835 18.6901C149.776 18.2477 149.813 17.7978 149.941 17.3708C150.07 16.9438 150.288 16.5497 150.581 16.2151C150.874 15.8804 151.234 15.6132 151.639 15.4314C152.043 15.2496 152.481 15.1574 152.923 15.1612C154.787 15.1612 155.912 16.4452 155.912 18.5662V19.0314H151.182V19.1061C151.161 19.3539 151.192 19.6034 151.272 19.8386C151.353 20.0737 151.481 20.2893 151.649 20.4714C151.817 20.6536 152.021 20.7984 152.248 20.8965C152.474 20.9946 152.719 21.0438 152.966 21.0411C153.282 21.0794 153.602 21.0219 153.886 20.8761C154.17 20.7303 154.404 20.5027 154.559 20.2222L155.832 20.2223ZM151.182 18.0455H154.565C154.582 17.8188 154.551 17.5911 154.475 17.3771C154.399 17.163 154.28 16.9673 154.125 16.8025C153.97 16.6377 153.782 16.5075 153.574 16.4202C153.366 16.3329 153.142 16.2906 152.916 16.2958C152.688 16.2929 152.461 16.3362 152.249 16.4231C152.037 16.51 151.845 16.6388 151.683 16.8019C151.521 16.9649 151.394 17.159 151.308 17.3726C151.222 17.5862 151.179 17.815 151.182 18.0455H151.182Z" fill="black"/>
</g>
<defs>
<clipPath id="clip0_2150_1038">
<rect width="178" height="60" fill="white"/>
</clipPath>
</defs>
</svg>
